<svg width="222" height="47" viewBox="0 0 222 47" fill="none" xmlns="http://www.w3.org/2000/svg">
<g clip-path="url(#clip0_105_85)">
<path fill-rule="evenodd" clip-rule="evenodd" d="M83.9567 35.8667C85.5499 37.5483 87.4743 38.8814 89.6086 39.7821C91.7428 40.6827 94.0405 41.1313 96.3567 41.0995C98.1483 41.1078 99.9316 40.8572 101.652 40.3555C103.361 39.852 104.981 39.082 106.45 38.0739L105.384 44.8443C104.029 45.3963 102.632 45.8359 101.205 46.1587C99.5741 46.4988 97.9111 46.6609 96.2451 46.6423C93.2046 46.6913 90.1865 46.1156 87.3774 44.9511C84.5684 43.7865 82.0283 42.0578 79.9143 39.8719C77.7401 37.7529 76.024 35.2102 74.8722 32.4011C73.7204 29.5921 73.1575 26.5765 73.2183 23.5411C73.1692 20.5073 73.7375 17.4952 74.8886 14.6878C76.0397 11.8804 77.7495 9.33636 79.9143 7.21029C82.0225 5.03055 84.5546 3.3054 87.3546 2.14103C90.1546 0.976667 93.1633 0.39774 96.1955 0.439891C97.4766 0.486753 98.7528 0.623492 100.015 0.849093C101.008 0.971838 101.988 1.18773 102.941 1.4939L104.082 7.7807C103.034 7.21132 101.911 6.7938 100.746 6.5407C99.2749 6.22516 97.7748 6.06309 96.2699 6.0571C93.9606 6.01031 91.6666 6.44228 89.5325 7.32581C87.3984 8.20934 85.4704 9.52527 83.8699 11.1907C82.1977 12.8107 80.8735 14.7546 79.978 16.9037C79.0826 19.0528 78.6347 21.3619 78.6619 23.6899C78.6976 25.9685 79.1838 28.2175 80.0925 30.3074C81.0013 32.3973 82.3145 34.2866 83.9567 35.8667Z" fill="#085EA7"/>
<path fill-rule="evenodd" clip-rule="evenodd" d="M112.75 6.4787L112.836 1.2583H140.34V6.3919H129.353V42.5627L123.823 46.1587V6.4787H112.75Z" fill="#085EA7"/>
<path fill-rule="evenodd" clip-rule="evenodd" d="M181.991 46.072L176.461 42.972V13.7452L146.701 46.072V0.687988L152.231 3.04399V32.3576L181.991 0.687988V46.072Z" fill="#085EA7"/>
<path fill-rule="evenodd" clip-rule="evenodd" d="M198.954 35.8667C200.547 37.5483 202.472 38.8814 204.606 39.7821C206.74 40.6827 209.038 41.1313 211.354 41.0995C213.146 41.1124 214.93 40.8617 216.649 40.3555C218.359 39.852 219.978 39.082 221.448 38.0739L220.381 44.8443C219.039 45.3944 217.654 45.834 216.24 46.1587C214.609 46.4988 212.946 46.6609 211.28 46.6423C208.248 46.6844 205.239 46.1055 202.439 44.9412C199.639 43.7768 197.107 42.0516 194.999 39.8719C192.815 37.7572 191.09 35.2163 189.93 32.4071C188.769 29.5978 188.199 26.5801 188.253 23.5411C188.21 20.5037 188.786 17.4895 189.946 14.6819C191.106 11.8743 192.825 9.33215 194.999 7.21029C197.107 5.03055 199.639 3.3054 202.439 2.14103C205.239 0.976667 208.248 0.39774 211.28 0.439891C212.561 0.486753 213.837 0.623492 215.099 0.849093C216.093 0.971838 217.072 1.18773 218.025 1.4939L219.166 7.7807C218.119 7.21132 216.996 6.7938 215.831 6.5407C214.359 6.22516 212.859 6.06309 211.354 6.0571C209.045 6.01031 206.751 6.44228 204.617 7.32581C202.483 8.20934 200.555 9.52527 198.954 11.1907C197.268 12.8002 195.935 14.7422 195.039 16.8937C194.142 19.0453 193.702 21.3595 193.746 23.6899C193.771 25.9624 194.243 28.2077 195.137 30.2973C196.031 32.3868 197.328 34.2794 198.954 35.8667Z" fill="#085EA7"/>
<path d="M83.9567 35.8667C85.5499 37.5483 87.4743 38.8814 89.6086 39.7821C91.7428 40.6827 94.0405 41.1313 96.3567 41.0995C98.1483 41.1078 99.9316 40.8572 101.652 40.3555C103.361 39.852 104.981 39.082 106.45 38.0739L105.384 44.8443C104.029 45.3963 102.632 45.8359 101.205 46.1587C99.5741 46.4988 97.9111 46.6609 96.2451 46.6423C93.2046 46.6913 90.1865 46.1156 87.3774 44.9511C84.5684 43.7865 82.0283 42.0578 79.9143 39.8719C77.7401 37.7529 76.024 35.2102 74.8722 32.4011C73.7204 29.5921 73.1575 26.5765 73.2183 23.5411C73.1692 20.5073 73.7375 17.4952 74.8886 14.6878C76.0397 11.8804 77.7495 9.33636 79.9143 7.21029C82.0225 5.03055 84.5546 3.3054 87.3546 2.14103C90.1546 0.976667 93.1633 0.39774 96.1955 0.439891C97.4766 0.486753 98.7528 0.623492 100.015 0.849093C101.008 0.971838 101.988 1.18773 102.941 1.4939L104.082 7.7807C103.034 7.21132 101.911 6.7938 100.746 6.5407C99.2749 6.22516 97.7748 6.06309 96.2699 6.0571C93.9606 6.01031 91.6666 6.44228 89.5325 7.32581C87.3984 8.20934 85.4704 9.52527 83.8699 11.1907C82.1977 12.8107 80.8735 14.7546 79.978 16.9037C79.0826 19.0528 78.6347 21.3619 78.6619 23.6899C78.6976 25.9685 79.1838 28.2175 80.0925 30.3074C81.0013 32.3973 82.3145 34.2866 83.9567 35.8667Z" fill="#085EA7"/>
<path d="M83.9567 35.8667C85.5499 37.5483 87.4743 38.8814 89.6086 39.7821C91.7428 40.6827 94.0405 41.1313 96.3567 41.0995C98.1483 41.1078 99.9316 40.8572 101.652 40.3555C103.361 39.852 104.981 39.082 106.45 38.0739L105.384 44.8443C104.029 45.3963 102.632 45.8359 101.205 46.1587C99.5741 46.4988 97.9111 46.6609 96.2451 46.6423C93.2046 46.6913 90.1865 46.1156 87.3774 44.9511C84.5684 43.7865 82.0283 42.0578 79.9143 39.8719C77.7401 37.7529 76.024 35.2102 74.8722 32.4011C73.7204 29.5921 73.1575 26.5765 73.2183 23.5411C73.1692 20.5073 73.7375 17.4952 74.8886 14.6878C76.0397 11.8804 77.7495 9.33636 79.9143 7.21029C82.0225 5.03055 84.5546 3.3054 87.3546 2.14103C90.1546 0.976667 93.1633 0.39774 96.1955 0.439891C97.4766 0.486753 98.7528 0.623492 100.015 0.849093C101.008 0.971838 101.988 1.18773 102.941 1.4939L104.082 7.7807C103.034 7.21132 101.911 6.7938 100.746 6.5407C99.2749 6.22516 97.7748 6.06309 96.2699 6.0571C93.9606 6.01031 91.6666 6.44228 89.5325 7.32581C87.3984 8.20934 85.4704 9.52527 83.8699 11.1907C82.1977 12.8107 80.8735 14.7546 79.978 16.9037C79.0826 19.0528 78.6347 21.3619 78.6619 23.6899C78.6976 25.9685 79.1838 28.2175 80.0925 30.3074C81.0013 32.3973 82.3145 34.2866 83.9567 35.8667Z" fill="#085EA7"/>
<path d="M83.9567 35.8667C85.5499 37.5483 87.4743 38.8814 89.6086 39.7821C91.7428 40.6827 94.0405 41.1313 96.3567 41.0995C98.1483 41.1078 99.9316 40.8572 101.652 40.3555C103.361 39.852 104.981 39.082 106.45 38.0739L105.384 44.8443C104.029 45.3963 102.632 45.8359 101.205 46.1587C99.5741 46.4988 97.9111 46.6609 96.2451 46.6423C93.2046 46.6913 90.1865 46.1156 87.3774 44.9511C84.5684 43.7865 82.0283 42.0578 79.9143 39.8719C77.7401 37.7529 76.024 35.2102 74.8722 32.4011C73.7204 29.5921 73.1575 26.5765 73.2183 23.5411C73.1692 20.5073 73.7375 17.4952 74.8886 14.6878C76.0397 11.8804 77.7495 9.33636 79.9143 7.21029C82.0225 5.03055 84.5546 3.3054 87.3546 2.14103C90.1546 0.976667 93.1633 0.39774 96.1955 0.439891C97.4766 0.486753 98.7528 0.623492 100.015 0.849093C101.008 0.971838 101.988 1.18773 102.941 1.4939L104.082 7.7807C103.034 7.21132 101.911 6.7938 100.746 6.5407C99.2749 6.22516 97.7748 6.06309 96.2699 6.0571C93.9606 6.01031 91.6666 6.44228 89.5325 7.32581C87.3984 8.20934 85.4704 9.52527 83.8699 11.1907C82.1977 12.8107 80.8735 14.7546 79.978 16.9037C79.0826 19.0528 78.6347 21.3619 78.6619 23.6899C78.6976 25.9685 79.1838 28.2175 80.0925 30.3074C81.0013 32.3973 82.3145 34.2866 83.9567 35.8667Z" fill="#085EA7"/>
<path d="M112.75 6.4787L112.836 1.2583H140.34V6.3919H129.353V42.5627L123.823 46.1587V6.4787H112.75Z" fill="#085EA7"/>
<path d="M112.75 6.4787L112.836 1.2583H140.34V6.3919H129.353V42.5627L123.823 46.1587V6.4787H112.75Z" fill="#085EA7"/>
<path d="M112.75 6.4787L112.836 1.2583H140.34V6.3919H129.353V42.5627L123.823 46.1587V6.4787H112.75Z" fill="#085EA7"/>
<path d="M181.991 46.072L176.461 42.972V13.7452L146.701 46.072V0.687988L152.231 3.04399V32.3576L181.991 0.687988V46.072Z" fill="#085EA7"/>
<path d="M181.991 46.072L176.461 42.972V13.7452L146.701 46.072V0.687988L152.231 3.04399V32.3576L181.991 0.687988V46.072Z" fill="#085EA7"/>
<path d="M181.991 46.072L176.461 42.972V13.7452L146.701 46.072V0.687988L152.231 3.04399V32.3576L181.991 0.687988V46.072Z" fill="#085EA7"/>
<path d="M198.954 35.8667C200.547 37.5483 202.472 38.8814 204.606 39.7821C206.74 40.6827 209.038 41.1313 211.354 41.0995C213.146 41.1124 214.93 40.8617 216.649 40.3555C218.359 39.852 219.978 39.082 221.448 38.0739L220.381 44.8443C219.039 45.3944 217.654 45.834 216.24 46.1587C214.609 46.4988 212.946 46.6609 211.28 46.6423C208.248 46.6844 205.239 46.1055 202.439 44.9412C199.639 43.7768 197.107 42.0516 194.999 39.8719C192.815 37.7572 191.09 35.2163 189.93 32.4071C188.769 29.5978 188.199 26.5801 188.253 23.5411C188.21 20.5037 188.786 17.4895 189.946 14.6819C191.106 11.8743 192.825 9.33215 194.999 7.21029C197.107 5.03055 199.639 3.3054 202.439 2.14103C205.239 0.976667 208.248 0.39774 211.28 0.439891C212.561 0.486753 213.837 0.623492 215.099 0.849093C216.093 0.971838 217.072 1.18773 218.025 1.4939L219.166 7.7807C218.119 7.21132 216.996 6.7938 215.831 6.5407C214.359 6.22516 212.859 6.06309 211.354 6.0571C209.045 6.01031 206.751 6.44228 204.617 7.32581C202.483 8.20934 200.555 9.52527 198.954 11.1907C197.268 12.8002 195.935 14.7422 195.039 16.8937C194.142 19.0453 193.702 21.3595 193.746 23.6899C193.771 25.9624 194.243 28.2077 195.137 30.2973C196.031 32.3868 197.328 34.2794 198.954 35.8667Z" fill="#085EA7"/>
<path d="M198.954 35.8667C200.547 37.5483 202.472 38.8814 204.606 39.7821C206.74 40.6827 209.038 41.1313 211.354 41.0995C213.146 41.1124 214.93 40.8617 216.649 40.3555C218.359 39.852 219.978 39.082 221.448 38.0739L220.381 44.8443C219.039 45.3944 217.654 45.834 216.24 46.1587C214.609 46.4988 212.946 46.6609 211.28 46.6423C208.248 46.6844 205.239 46.1055 202.439 44.9412C199.639 43.7768 197.107 42.0516 194.999 39.8719C192.815 37.7572 191.09 35.2163 189.93 32.4071C188.769 29.5978 188.199 26.5801 188.253 23.5411C188.21 20.5037 188.786 17.4895 189.946 14.6819C191.106 11.8743 192.825 9.33215 194.999 7.21029C197.107 5.03055 199.639 3.3054 202.439 2.14103C205.239 0.976667 208.248 0.39774 211.28 0.439891C212.561 0.486753 213.837 0.623492 215.099 0.849093C216.093 0.971838 217.072 1.18773 218.025 1.4939L219.166 7.7807C218.119 7.21132 216.996 6.7938 215.831 6.5407C214.359 6.22516 212.859 6.06309 211.354 6.0571C209.045 6.01031 206.751 6.44228 204.617 7.32581C202.483 8.20934 200.555 9.52527 198.954 11.1907C197.268 12.8002 195.935 14.7422 195.039 16.8937C194.142 19.0453 193.702 21.3595 193.746 23.6899C193.771 25.9624 194.243 28.2077 195.137 30.2973C196.031 32.3868 197.328 34.2794 198.954 35.8667Z" fill="#085EA7"/>
<path d="M198.954 35.8667C200.547 37.5483 202.472 38.8814 204.606 39.7821C206.74 40.6827 209.038 41.1313 211.354 41.0995C213.146 41.1124 214.93 40.8617 216.649 40.3555C218.359 39.852 219.978 39.082 221.448 38.0739L220.381 44.8443C219.039 45.3944 217.654 45.834 216.24 46.1587C214.609 46.4988 212.946 46.6609 211.28 46.6423C208.248 46.6844 205.239 46.1055 202.439 44.9412C199.639 43.7768 197.107 42.0516 194.999 39.8719C192.815 37.7572 191.09 35.2163 189.93 32.4071C188.769 29.5978 188.199 26.5801 188.253 23.5411C188.21 20.5037 188.786 17.4895 189.946 14.6819C191.106 11.8743 192.825 9.33215 194.999 7.21029C197.107 5.03055 199.639 3.3054 202.439 2.14103C205.239 0.976667 208.248 0.39774 211.28 0.439891C212.561 0.486753 213.837 0.623492 215.099 0.849093C216.093 0.971838 217.072 1.18773 218.025 1.4939L219.166 7.7807C218.119 7.21132 216.996 6.7938 215.831 6.5407C214.359 6.22516 212.859 6.06309 211.354 6.0571C209.045 6.01031 206.751 6.44228 204.617 7.32581C202.483 8.20934 200.555 9.52527 198.954 11.1907C197.268 12.8002 195.935 14.7422 195.039 16.8937C194.142 19.0453 193.702 21.3595 193.746 23.6899C193.771 25.9624 194.243 28.2077 195.137 30.2973C196.031 32.3868 197.328 34.2794 198.954 35.8667Z" fill="#085EA7"/>
<path d="M27.165 46.8036C30.6768 46.8003 34.1536 46.1052 37.3968 44.7579C40.6399 43.4106 43.5858 41.4375 46.0662 38.9513C48.5466 36.4652 50.5128 33.5147 51.8526 30.2685C53.1924 27.0223 53.8795 23.5438 53.8746 20.032C53.8755 16.4137 53.1406 12.833 51.7145 9.50754C50.2885 6.18212 48.201 3.18146 45.579 0.687988C48.0896 4.39413 49.4209 8.77279 49.3982 13.2492C49.3983 19.1495 47.062 24.8099 42.9003 28.9925C38.7386 33.1751 33.0901 35.5397 27.1898 35.5692C21.2702 35.5692 15.593 33.2176 11.4072 29.0318C7.22135 24.846 4.86978 19.1688 4.86978 13.2492C4.84706 8.77279 6.17838 4.39413 8.68899 0.687988C6.09079 3.19572 4.02392 6.20075 2.61151 9.52407C1.19911 12.8474 0.470052 16.421 0.467785 20.032C0.461199 27.1214 3.26944 33.9234 8.27543 38.9433C13.2814 43.9633 20.0756 46.7904 27.165 46.8036Z" fill="#085EA7"/>
<path d="M27.4996 28.4391C29.6114 28.4375 31.702 28.0187 33.6515 27.2068C35.601 26.3949 37.3709 25.2059 38.8595 23.708C40.3482 22.2102 41.5262 20.433 42.3261 18.4785C43.1259 16.5241 43.5318 14.4309 43.5204 12.3191C43.537 10.1491 43.1051 7.99909 42.2515 6.00395C41.398 4.00881 40.1413 2.2116 38.5604 0.725098C40.0646 2.94092 40.8602 5.5614 40.842 8.23949C40.8485 9.99757 40.5085 11.7397 39.8413 13.3663C39.1742 14.9929 38.193 16.4721 36.9539 17.7192C35.7148 18.9664 34.242 19.9572 32.6198 20.6348C30.9975 21.3125 29.2576 21.6638 27.4996 21.6687C23.9618 21.649 20.5759 20.229 18.0824 17.7193C15.589 15.2096 14.191 11.8145 14.1944 8.27669C14.1717 5.59979 14.963 2.9792 16.4636 0.762296C14.8885 2.25339 13.6358 4.05148 12.7827 6.04557C11.9296 8.03965 11.4943 10.1874 11.5036 12.3563C11.5132 16.6037 13.1989 20.6757 16.1942 23.6873C19.1894 26.6988 23.2522 28.4064 27.4996 28.4391Z" fill="#085EA7"/>
</g>
<defs>
<clipPath id="clip0_105_85">
<rect width="220.956" height="46.376" fill="white" transform="translate(0.47998 0.439941)"/>
</clipPath>
</defs>
</svg>
