<svg width="115" height="16" viewBox="0 0 115 16" fill="none" xmlns="http://www.w3.org/2000/svg">
<path d="M52.6903 0.751743H52.3331L52.325 0.760094C52.3128 0.760094 52.3006 0.760095 52.2966 0.762183C51.9861 1.07958 48.9986 4.77558 48.8789 4.93637C49.1569 5.30806 50.6608 7.14562 50.7562 7.22914C50.7602 7.22288 50.7663 7.2187 50.7704 7.21244L50.809 7.25838L56.1445 0.749654H55.8664C54.8862 0.730861 53.3966 0.737125 52.6923 0.749654L52.6903 0.751743Z" fill="white"/>
<path d="M43.4701 0.751733C42.6908 0.739204 40.8784 0.730851 40.16 0.751733H40.0342L40.0382 0.755908C40.0382 0.755908 40.0362 0.755908 40.0342 0.755908C42.0495 3.27838 44.1277 5.74029 46.149 8.25858C44.1155 10.7518 42.0738 13.2325 40.0423 15.7278C40.0443 15.7299 40.0484 15.7299 40.0504 15.732L40.0342 15.7529H43.8435L48.0669 10.6015C49.1446 11.8585 51.0767 14.2975 52.2842 15.7446C52.2984 15.7446 52.3126 15.7446 52.3248 15.7446L52.3309 15.7529H56.1402L43.8415 0.751733H43.4661H43.4701Z" fill="white"/>
<path d="M27.1937 0.76001L19.7637 15.7549H23.4228L29.3591 3.77528L32.4886 10.0877H27.8756L26.463 12.9401H33.9011L35.2954 15.7549H38.9546L31.5246 0.76001H27.1937Z" fill="white"/>
<path d="M64.2361 0.76001L56.8062 15.7549H60.4653L66.4016 3.77528L69.5311 10.0877H64.918L63.5055 12.9401H70.9436L72.3379 15.7549H75.997L68.5671 0.76001H64.2361Z" fill="white"/>
<path d="M103.241 0.76001L95.811 15.7549H99.4702L105.406 3.77528L108.534 10.0877H103.923L102.508 12.9401H109.946L111.343 15.7549H115L107.57 0.76001H103.241Z" fill="white"/>
<path d="M95.0782 3.93617C95.0782 2.17169 93.688 0.743408 91.9751 0.743408H78.4932V3.58536H90.8325C91.5144 3.58536 92.0664 4.15334 92.0664 4.85495V7.12475C92.0664 7.82637 91.5144 8.39434 90.8325 8.39434H81.5516V5.20158H78.4932V15.7488H81.5516V11.2363H91.9771C93.692 11.2363 95.0802 9.80592 95.0802 8.04354V3.94035L95.0782 3.93617Z" fill="white"/>
<path d="M14.6495 0.743896H3.91143C2.12345 0.743896 0.672363 2.23483 0.672363 4.07656V12.4187C0.672363 14.2583 2.12142 15.7513 3.91143 15.7513H14.6495C16.0904 15.7513 17.2594 14.5486 17.2594 13.066V10.3305H14.343V11.9718C14.343 12.4834 13.9392 12.8969 13.444 12.8969H4.6522C4.15497 12.8969 3.75313 12.4813 3.75313 11.9718V4.51298C3.75313 4.00139 4.157 3.58794 4.6522 3.58794H13.444C13.9412 3.58794 14.343 4.00348 14.343 4.51298V5.90577H17.2594V3.43133C17.2594 1.94875 16.0904 0.745984 14.6495 0.745984V0.743896Z" fill="white"/>
</svg>
